<svg xmlns="http://www.w3.org/2000/svg" width="108" height="108" viewBox="0 0 108 108">
  <defs>
    <linearGradient id="bg" x1="10" y1="8" x2="98" y2="100" gradientUnits="userSpaceOnUse">
      <stop stop-color="#172554"/>
      <stop offset="0.52" stop-color="#0F766E"/>
      <stop offset="1" stop-color="#111827"/>
    </linearGradient>
    <linearGradient id="screen" x1="23" y1="25" x2="82" y2="72" gradientUnits="userSpaceOnUse">
      <stop stop-color="#0B1220"/>
      <stop offset="1" stop-color="#111827"/>
    </linearGradient>
    <filter id="shadow" x="-20%" y="-20%" width="140%" height="150%" color-interpolation-filters="sRGB">
      <feDropShadow dx="0" dy="5" stdDeviation="4" flood-color="#020617" flood-opacity="0.35"/>
    </filter>
  </defs>
  <rect width="108" height="108" rx="0" fill="url(#bg)"/>
  <path fill="#22D3EE" fill-opacity="0.28" d="M0 72 108 29v79H0z"/>
  <path fill="#F43F5E" fill-opacity="0.9" d="M0 91 108 54v54H0z"/>
  <g filter="url(#shadow)">
    <rect x="16" y="21" width="70" height="50" rx="8" fill="#F8FAFC"/>
    <rect x="22" y="27" width="58" height="35" rx="4" fill="url(#screen)"/>
    <rect x="28" y="33" width="21" height="11" rx="2" fill="#22D3EE"/>
    <rect x="53" y="33" width="20" height="11" rx="2" fill="#A3E635"/>
    <rect x="28" y="48" width="45" height="8" rx="2" fill="#64748B"/>
    <path fill="#CBD5E1" d="M44 71h14l3 8H41z"/>
    <rect x="30" y="79" width="42" height="7" rx="3.5" fill="#E2E8F0"/>
  </g>
  <path fill="#FDE68A" d="m86 12 4 11 11 4-11 4-4 11-4-11-11-4 11-4z"/>
  <path fill="#FFFFFF" d="m91 48 2 6 6 2-6 2-2 6-2-6-6-2 6-2z"/>
  <rect x="19" y="84" width="70" height="11" rx="5.5" fill="#111827" fill-opacity="0.92"/>
  <rect x="29" y="87" width="7" height="5" rx="1.5" fill="#22D3EE"/>
  <rect x="42" y="87" width="7" height="5" rx="1.5" fill="#A3E635"/>
  <rect x="55" y="87" width="7" height="5" rx="1.5" fill="#FDE68A"/>
  <rect x="68" y="87" width="11" height="5" rx="1.5" fill="#F43F5E"/>
</svg>
